<?xml version="1.0" encoding="UTF-8" standalone="no"?>
<!-- Created with Inkscape (http://www.inkscape.org/) -->

<svg
   width="64"
   height="64"
   viewBox="0 0 16.933333 16.933333"
   version="1.1"
   id="svg1"
   xmlns="http://www.w3.org/2000/svg"
   xmlns:svg="http://www.w3.org/2000/svg">
  <defs
     id="defs1" />
  <g
     id="layer1">
    <path
       d="m 3.5278123,0.64033897 c -1.6262053,0 -2.96656969,1.34036433 -2.96656969,2.96656973 v 9.8885663 c 0,1.626206 1.34036439,2.96657 2.96656969,2.96657 H 13.41638 c 1.626205,0 2.966569,-1.340364 2.966569,-2.96657 V 3.6069087 c 0,-1.6262054 -1.340364,-2.96656973 -2.966569,-2.96656973 z m 0,1.97771353 H 13.41638 c 0.417173,0 0.757093,0.2317633 0.90774,0.5794086 L 13.663593,3.9468288 7.4368867,11.061961 5.215821,8.8408967 c -0.3862718,-0.3862727 -1.0120319,-0.3862727 -1.3983038,0 -0.3862729,0.3862719 -0.3862729,1.0158947 0,1.4021673 l 2.9665697,2.96657 c 0.405585,0.401723 1.066111,0.382409 1.4446574,-0.05022 L 14.405236,6.1022245 v 7.3932475 c 0,0.563956 -0.4249,0.988857 -0.988856,0.988857 H 3.5278123 c -0.563956,0 -0.9888562,-0.424901 -0.9888562,-0.988857 V 3.6069056 c 0,-0.5639561 0.4249002,-0.9888562 0.9888562,-0.9888562 z m 0,0"
       fill="#20325a"
       id="path1" />
  </g>
</svg>
