<?xml version="1.0" encoding="UTF-8" standalone="no"?>
<!-- Created with Inkscape (http://www.inkscape.org/) -->

<svg
   version="1.1"
   id="svg1"
   width="234.53906"
   height="123.24612"
   viewBox="0 0 234.53906 123.24612"
   xmlns="http://www.w3.org/2000/svg"
   xmlns:svg="http://www.w3.org/2000/svg"
   xmlns:rdf="http://www.w3.org/1999/02/22-rdf-syntax-ns#"
   xmlns:cc="http://creativecommons.org/ns#"
   xmlns:dc="http://purl.org/dc/elements/1.1/">
  <title
     id="title11">promvideosnabLogo</title>
  <defs
     id="defs1" />
  <g
     id="g1"
     transform="translate(-19.047154,-8.9500911)">
    <path
       id="path10"
       style="opacity:1;fill:#f3f3f7"
       d="m 136.31669,8.9500911 c -78.480422,0 -117.269536,61.7343749 -117.269536,61.7343749 0,0 0.34802,0.0083 0.357422,0.0098 0.84078,1.325522 39.42332,61.501944 116.912114,61.501944 78.48043,0 117.26953,-61.734365 117.26953,-61.734365 0,0 -0.34802,-0.0083 -0.35742,-0.0098 C 252.38802,69.126523 213.80549,8.9500911 136.31669,8.9500911 Z m 0,15.1113279 c 51.18911,2.060339 87.80279,39.022772 94.38086,46.595703 -6.86329,7.833608 -43.36988,44.378008 -94.38086,46.427728 C 85.12757,115.02451 48.513878,78.062073 41.935826,70.489153 48.799116,62.655545 85.305719,26.111142 136.31669,24.061419 Z" />
    <path
       style="fill:#f3f3f7;stroke-width:0.157018"
       d="M 131.42672,127.59489 C 118.1117,126.28342 106.20941,120.65183 96.803023,111.21263 89.689123,104.07392 84.660926,95.273033 82.13038,85.53102 80.869434,80.676677 80.41799,76.997895 80.405833,71.477937 c -0.01232,-5.596786 0.450995,-9.47552 1.709837,-14.313896 5.247276,-20.167981 21.01188,-35.790795 41.09056,-40.720993 7.17139,-1.760893 14.63598,-2.107254 21.85661,-1.014164 17.98999,2.723406 33.60316,13.989859 41.79483,30.159107 3.13468,6.187406 4.86692,11.89418 5.83308,19.216699 0.3874,2.935947 0.38661,10.018011 -9.9e-4,13.032463 -1.70148,13.217544 -7.1283,24.398777 -16.27126,33.524787 -7.38993,7.37622 -16.38799,12.43522 -26.50137,14.89992 -5.81853,1.41801 -12.63658,1.90956 -18.48996,1.33303 z m 11.85483,-4.21457 c 7.01924,-0.96511 13.17136,-2.98601 18.96855,-6.23096 11.35559,-6.35623 19.97307,-16.61816 24.14086,-28.747575 5.19154,-15.108806 3.26733,-31.557906 -5.28085,-45.143276 -1.97001,-3.130894 -4.55882,-6.327962 -7.45684,-9.208896 -14.69298,-14.606367 -36.81456,-19.152717 -56.2028,-11.550594 -12.81599,5.02515 -23.247147,14.999319 -28.827286,27.564396 -5.26525,11.856009 -5.935614,25.292932 -1.875219,37.58734 2.881528,8.724946 7.392093,15.720245 14.334825,22.231485 7.92916,7.43632 18.76939,12.38155 29.71586,13.5561 0.8636,0.0926 1.81748,0.19734 2.11973,0.23261 1.29669,0.15129 8.64859,-0.0549 10.36317,-0.29063 z m -7.76251,-2.14272 c 0.0754,-0.12133 6.2267,-10.77024 13.66965,-23.664255 7.44295,-12.894011 13.58142,-23.443523 13.64103,-23.443349 0.0596,1.56e-4 3.45879,5.80571 7.55371,12.901199 l 7.44534,12.900898 -0.73405,1.028667 c -2.12025,2.97127 -5.90418,6.93876 -8.92587,9.35888 -8.61257,6.89793 -18.85752,10.71211 -29.66139,11.04289 -2.66132,0.0814 -3.10507,0.0629 -2.98842,-0.12493 z m -6.05504,-0.30752 c -3.08563,-0.46314 -5.50669,-1.04352 -8.50931,-2.03986 -7.60126,-2.52225 -14.02887,-6.49199 -19.67877,-12.15379 -3.135996,-3.14259 -6.243704,-7.175367 -8.082915,-10.488955 l -0.501129,-0.902854 h 27.349154 c 16.62948,0 27.32864,0.05679 27.2968,0.144817 -0.0287,0.07964 -3.37325,5.907232 -7.43216,12.950182 l -7.37983,12.80539 -0.54956,-0.0101 c -0.30226,-0.005 -1.43278,-0.14274 -2.51228,-0.30476 z m 49.82554,-23.740504 c -0.30232,-0.476251 -27.21501,-47.123523 -27.21501,-47.171291 0,-0.02933 6.75239,-0.03534 15.00529,-0.01328 l 15.00529,0.04002 0.51875,1.177628 c 1.8121,4.11366 3.10808,8.768537 3.8033,13.66054 0.4281,3.012493 0.39101,10.26745 -0.0681,13.302923 -0.80581,5.328563 -2.15251,9.869066 -4.28135,14.434899 -0.72973,1.565081 -2.46446,4.764829 -2.58323,4.764829 -0.0332,0 -0.11647,-0.08832 -0.18501,-0.196275 z M 90.989231,91.929489 c -5.647125,-12.604041 -5.871583,-26.97997 -0.620689,-39.754062 1.292176,-3.143537 3.374365,-7.060509 3.621597,-6.812873 0.12167,0.121862 26.612691,45.963569 27.091601,46.880966 l 0.2254,0.431801 H 106.31527 91.323394 Z M 103.01904,55.684028 95.531988,42.705435 95.94197,42.11383 c 2.028714,-2.927432 6.24567,-7.384143 9.26279,-9.789413 8.76473,-6.987317 18.7811,-10.7177 29.65591,-11.044711 l 3.11992,-0.09382 -0.23671,0.376486 c -0.13019,0.207073 -6.22605,10.763213 -13.54633,23.458091 -7.32029,12.694877 -13.39552,23.207714 -13.50053,23.361869 -0.16558,0.243068 -1.18482,-1.442606 -7.67798,-12.698307 z m 23.01674,-8.539946 c 0.0287,-0.08423 3.37325,-5.912573 7.43216,-12.951875 6.67079,-11.569054 7.41754,-12.798849 7.77238,-12.799966 0.71869,-0.0024 4.76436,0.636752 6.59474,1.041632 2.47377,0.547203 6.89257,2.024603 9.28597,3.104717 5.63911,2.544867 10.55822,5.950756 14.97778,10.370329 3.1248,3.124796 6.23862,7.164716 8.08179,10.485449 l 0.50113,0.902854 h -27.34914 c -17.7021,0 -27.33069,-0.05402 -27.29681,-0.15314 z"
       id="path1" />
  </g>
  <metadata
     id="metadata11">
    <rdf:RDF>
      <cc:Work
         rdf:about="">
        <dc:title>promvideosnabLogo</dc:title>
        <dc:language>russian</dc:language>
      </cc:Work>
    </rdf:RDF>
  </metadata>
</svg>
